<svg version="1.2" xmlns="http://www.w3.org/2000/svg" width="1439" height="1126">
  <path
    d="M612 .3l-3.8 4.3 36.2-2C643.4-.2 625.7.3 612 .3zm-291.5 12c6.8-3.8 38.1-4.4 54.7-3.9 3.9-4.3-22.6-5.4-31.5-7L332 3c-29.3 2.3-30.2 7.2-11.5 9.3zm936.5 1.6c9.6-.4 17.8-2.2 37.9-2.2 12.2-2.8-1.3-6.1-16.5-6.3-7.5 2.6-39.7 5.3-21.4 8.5zm182 14.3v-5.9q-1.5-.2-3.4-.4c-9.6.3-14.4.5-18.5 1.4-21.9 3.1-15.5 4.4-2.8 7.1-63.6 1.5-39.3-14-74-13.5-47.5 2.6-18.3 11.5-29.7 15 .5-9.3-85.9-15.3-155.8-14.8-16.4 1.2-33.2 1.6-50.5 1.7-17.3 0-35.1-.3-53.2-.5-36.4-.4-74.3-.7-113.5 2.9-16.7-.3-36-.7-56.6-1.1-20.5-.4-42.4-.8-64.4-.7 0-.5-.1-1 0-1.5-1.1.4-1.7.9-1.7 1.4-32.4-6.1-107.6 5-115.5-5.3l-7.9 1.1c-39.1 1.6 0-3.8-22.6-5.4-36.2 2.1-84.2-5.7-102.7 3.6-2.9-.6 1-1.1-2-1.6l-29.3 2.1c-1.9 2.2-7.7 4.9-2.8 7.1-6.8 0-12.7 2.7-22.5 2.1-24.4.5-3-4.3-11.8-6-30.8 1.9-63.8 3.4-96.5 4.1-32.7.6-65 .3-94.4-1.2-.1-7.6-67.6-4.7-96-3.6-28.5-2.6-59 .1-87.8 2.8-14.4 1.3-28.4 2.7-41.4 3.4-13.1.6-25.3.7-36.1-.6 12.7-2.8 30-3.2 44.8-3.5 14.8-.3 27-.6 29.4-3.4L108 12.9c-26.5-1-68.7-3.5-84.1 2.6 14.7 2.6 15.8 5.3 20.8 7.5-11.7 1.7-13.6 3.8-28.3 5-5.5.3-11.1.5-16.4.6v1097h1439V44.3h-5.5c1.2-.8 3.1-1.4 5.5-1.9v-9.3c-19.4-1-9.2-2.8 0-4.9zM0 20.9v3q3.3 0 6.5-.2c1.2-1.3-1.7-2.2-6.5-2.8z"
    fill="#ffae47" />
</svg>