<svg version="1.2" xmlns="http://www.w3.org/2000/svg" viewBox="0 0 83 12" width="83" height="12">
  <path fill="#ffff"
    d="m5.9 0.4l1.3 4.2h4.4l-3.5 2.6 1.3 4.1-3.5-2.5-3.6 2.5 1.4-4.1-3.5-2.6h4.3zm17.8 0l1.3 4.2h4.4l-3.5 2.5 1.3 4.2-3.5-2.6-3.6 2.6 1.4-4.2-3.5-2.5h4.3zm17.8 0l1.3 4.1h4.4l-3.5 2.6 1.3 4.2-3.5-2.6-3.6 2.6 1.4-4.2-3.5-2.6h4.3zm17.8 0l1.3 4.2h4.4l-3.5 2.6 1.3 4.1-3.5-2.5-3.6 2.5 1.4-4.1-3.5-2.6h4.3zm17.8 0l1.3 4.2h4.4l-3.5 2.5 1.3 4.2-3.5-2.6-3.6 2.6 1.4-4.2-3.5-2.5h4.3z" />
</svg>