<svg version="1.2" xmlns="http://www.w3.org/2000/svg" viewBox="0 0 784 210" width="784" height="210"><style>.a{fill:#202121}</style><path fill-rule="evenodd" class="a" d="m422.2 207.5l15.2-2.1-1.6 4.3c-5.8 0-13.2 0.5-13.6-2.2zm-376.4-58.3c-7.9 2.1-26.2 2-34.5-1.3l-6.2-1.3c6.1-1 10-4 26.3-3.5-2 1.8 0.1 5.3 14.4 6.1zm667.1-33.4c1.9 0 3.6 0.1 5.1 0.2-1.8 0-3.6 0-5.4 0 0.2 2.4-1.1 4.9-2.6 7.2-1.6 2.3-3.1 4.4-4.4 6.3 13.5 4.4 12.6 8.6 10.9 12.7-0.8 2-1.8 4-1.6 5.9 0.2 1.9 1.7 3.8 6.3 5.6 1.2 5.3-8.6 11.3-25.5 14.7v2.9c11 0 21.4 0.6 26.2 3.2 0.9 1.9-12.8 2.2-26.2 2.9v4.1c-1.9 0-3.9 0-5.8 0.2 2.3 0.3 4.9 0.7 7.9 1.3 3.4 0.5 4.1 1 5.4 2.1q-0.7 0.2-1.4 0.4h-22.2q-0.5-0.1-1-0.1c-1 0.6-2.1 1.1-3.7 1.7 2.1 2.1 2.5 4.8 8.7 7.5-6.5 6-24.3 3.5-35.4 2.5l-5-2.1c1-2.7 6.2-3 12.4-3.4 6.2-0.3 13.5-0.7 18.9-3.4-4.6-1.3-9.7-1.3-15.2-0.6-5.5 0.7-11.4 2-17.5 3.4-12.1 2.6-25 5.3-37 2.7-11.9 1.2-40.4 4-40.4-3.6-12.4-1.5-26-1.8-39.8-1.1-13.8 0.6-27.7 2.1-40.7 4-3.7-1.6 5.4-6.5-4.9-6-4.2-0.5-6.6 2.2-9.5 2.2 2.1 2.2-0.4 4.9-1.2 7l-12.3 2.2c-1.3-0.5 0.3-1.1-0.9-1.6-7.8 9.2-28 1.5-43.3 3.6-9.5-1.7 7-7-9.5-5.5l-3.3 1.1c-3.3-10.3-35 0.8-48.7-5.3 0 0.6-0.2 1-0.7 1.4 0.1-0.5 0-0.9 0-1.4-9.2 0-18.5-0.3-27.1-0.7-8.7-0.4-16.8-0.8-23.9-1.2-16.5 3.6-32.5 3.4-47.8 2.9-7.6-0.2-15.1-0.5-22.4-0.4-7.3 0-14.4 0.4-21.3 1.7-20.7 0.3-44.8-2.6-57.2-7.5h-9c0.2 3.2-1.4 6.3-12 7.6-7.6 0.3-8.4-3.8-11.4-7.6h-10.6c0-0.8-0.8-1.6-2.2-2.4q-1.1-0.3-2.3-0.6c0.9 1.2-0.4 2.4-5.8 4.2-1.6 0.9-3.6 1.1-7.3 1.4v-2.6h-12.7c2-0.9 5.5-1.4 12-1.3 0.4 0.3 0.6 0.5 0.7 0.8v-4.2q0.2-0.1 0.3-0.2-1.9-0.3-3.8-0.6c-8 0.5-18.1 0.6-28 2.3-22.6-1.7-13.4-6.4-9.6-9.4l8-1.3c10.2 0.2 11.3 1.6 12.6 3.3 1.2 1.6 2.6 3.6 12.9 5 4.9-1.2 4.8-2.6 2.2-4.1-2.5-1.4-7.5-3-12.5-4.6-10.1-3.2-20.2-6.6-10.4-9.8-4.3-3.2-15-10.7 13.4-10.7 5.8-3.3 6.8-6.9 4.4-10.5-2.4-3.7-8.2-7.4-15.1-10.8 6.1-1 24.3 1.4 22.3-1.3 2.1-1.1-8.1-1.8-8.1-2.5-8.1 0.5-18.2-0.2-26.3-0.4l-8.1-3.2c2-0.4 4.1 0.1 6.1-0.3-34.6-2-5.7-7.4-13.6-11.4 6.3-2.5 26.3 1.8 20.5-2.6l-4-0.8c38.5-0.9-3.1-9.3 19.6-12.9-1.9 0-3.6-0.1-5.1-0.2 1.8 0 3.6 0 5.4 0-0.2-2.5 1.1-4.9 2.6-7.2 1.6-2.3 3.1-4.5 4.4-6.3-13.5-4.4-12.6-8.6-10.9-12.7 0.8-2 1.8-4 1.6-5.9-0.2-2-1.7-3.9-6.3-5.7-1.2-5.2 8.6-11.3 25.5-14.7v-2.8c-10.9 0-21.4-0.6-26.2-3.2-0.9-1.9 12.8-2.2 26.2-2.9v-3.6c2.3-0.1 4.6-0.3 7-0.6q0.1 0 0.2 0c-2.7-0.2-5.6-0.7-9.3-1.5-3.3-0.4-4-0.9-5.2-1.9h22.6c1-0.5 2.1-1.1 3.6-1.6-2.1-2.1-2.6-4.8-8.8-7.5 6.5-6 24.3-3.5 35.4-2.5l5 2.1c-1 2.7-6.1 3-12.4 3.4-6.2 0.3-13.5 0.7-18.8 3.4 4.5 1.3 9.6 1.3 15.2 0.6 5.5-0.7 11.3-2 17.4-3.4 12.2-2.6 25-5.3 37-2.7 12-1.2 40.4-4 40.5 3.6 12.4 1.5 26 1.8 39.7 1.1 13.8-0.6 27.7-2.1 40.7-4 3.7 1.6-5.3 6.5 5 6 4.1 0.5 6.6-2.2 9.4-2.2-2-2.2 0.4-4.9 1.2-7l12.4-2.2c1.2 0.5-0.4 1.1 0.8 1.6 7.8-9.2 28-1.5 43.3-3.6 9.5 1.7-7 7 9.5 5.5l3.3-1.1c3.4 10.3 35-0.8 48.7 5.2 0-0.5 0.3-0.9 0.7-1.3 0 0.5 0 0.9 0 1.4 9.3 0 18.5 0.3 27.2 0.7 8.6 0.4 16.8 0.8 23.8 1.2 16.5-3.6 32.5-3.4 47.8-2.9 7.7 0.2 15.1 0.5 22.4 0.4 7.3 0 14.4-0.5 21.3-1.7 20.7-0.3 44.8 2.6 57.2 7.5h9c-0.1-3.2 1.4-6.3 12-7.6 7.7-0.3 8.5 3.8 11.4 7.6h12.7c0.3 0.6 1 1.2 2.1 1.8q0.1 0.1 0.2 0.1c0.4-0.9 2.2-1.9 5.9-3.1 1.7-0.9 3.8-1.1 7.8-1.5q0.8 0.2 1.5 0.4v5.9q-0.6 0.3-1.1 0.6c1.5 0.3 3.1 0.5 4.6 0.8 8-0.6 18.1-0.7 28-2.3 22.6 1.7 13.4 6.4 9.6 9.4l-8 1.3c-10.2-0.3-11.3-1.6-12.6-3.3-1.2-1.6-2.6-3.6-12.9-5-4.9 1.2-4.8 2.6-2.2 4 2.5 1.5 7.5 3.1 12.5 4.7 10.1 3.2 20.2 6.6 10.4 9.8 4.3 3.1 15 10.7-13.4 10.7-5.8 3.3-6.8 6.9-4.4 10.5 2.4 3.7 8.2 7.4 15.1 10.8-6.1 1-24.3-1.4-22.3 1.3-2.1 1.1 8.1 1.8 8.1 2.5 8.1-0.5 18.2 0.1 26.3 0.3l8.1 3.3c-2 0.3-4.1-0.1-6.1 0.2 34.6 2.1 5.7 7.5 13.6 11.5-6.3 2.5-26.3-1.8-20.5 2.5l4 0.9c-38.5 0.9 3.1 9.3-19.6 12.9zm-159.1 91.2l-4.9 1.7c-3.8-1.7-14.9-2.7-13.3-7.1 7 0.6 20.2 0 23-3.8 7.9 2.1 7.5 7-4.8 9.2zm221.8-110.2l-7.9-4.1 16.2 0.4c-0.1 1.6 1.8 3.5-8.3 3.7zm-10.7 70.7c-0.7 1.7-13.2 3.2-23.6 1.9 0.1-2.3-6.8-3.2-8.2-4.2 11.8-2.1 22.1 1.5 31.8 2.3zm-609.8 37.1c-6.5-0.1-12.1-3.5-7-6.3 8.5 0.1 11.9-1.8 16-2.1 7.7 3.1-5.9 5.9-9 8.4zm535.9-18.3c1.4-0.2 3-0.2 4.7-0.2v3.5c-3.2-0.6-5.4-1.5-4.7-3.3zm-670.9-144.1c0.7-1.7 13.2-3.2 23.6-1.8-0.1 2.2 6.8 3.1 8.2 4.2-11.8 2.1-22.1-1.5-31.8-2.4zm-19 74.4c0.1-1.5-1.8-3.5 8.3-3.6l7.9 4.1zm738.1-56.1c7.9-2.1 26.2-2 34.5 1.3l6.2 1.3c-6 1-10 4-26.3 3.5 2-1.8-0.1-5.3-14.4-6.1zm-111.2-54.9c6.4 0.2 12.1 3.5 6.9 6.3-8.4 0-11.9 1.8-15.9 2.2-7.7-3.2 5.9-5.9 9-8.5zm67.7 19.1h11.1c-2.1 0.6-5.3 0.9-10.4 0.8-0.4-0.3-0.6-0.5-0.7-0.8zm-603.6-0.8q-1.3 0.1-2.7 0.2v-3c2 0.6 3.2 1.4 2.7 2.8zm137.2-20.7l4.9-1.6c3.7 1.6 14.9 2.6 13.3 7-7.1-0.5-20.3 0-23.1 3.9-7.9-2.2-7.5-7.1 4.9-9.3zm131.6-0.5l-15.3 2.1 1.6-4.3c5.8 0 13.2-0.5 13.7 2.2z"/></svg>