<svg version="1.2" xmlns="http://www.w3.org/2000/svg" viewBox="0 0 1441 796" width="1441" height="796"><style>.a{fill:#db9439}</style><path class="a" d="m1281 795.6h159.9v-86.7q-3.7-5.7-6.8-11.7 3.4 1.6 6.8 3.2v-184.8c-6.2-7.8-10.4-17.1-11.9-27q5.7 5.1 11.9 9.7v-483.9q-2.4-7-4.4-14.1c-13.8 32.9-39.3 60.7-70.9 77.2 6.7 2.2 14.1 1.9 20.6-1q-9.1 7.1-18.1 14.2c14-1.6 27.7-7 39.1-15.3-3.1 19.2-13.5 36.4-26.2 51.1-12.8 14.7-28.2 26.9-43.4 39 8 2.1 16.9 0.7 23.9-3.8-9.1 10.6-19.6 19.9-31.2 27.6 8.8 0.3 17.7-1.5 25.8-5.2-10.4 12.4-30.2 11.5-42.8 21.6 21.1 0.6 42.3-3.3 61.9-11.3-10.9 11.8-22.6 22.8-35.1 32.8 14.9 0 29.7-4.6 41.9-13.2-28.7 52-77.6 90.3-135.7 102.1 20.7 7.4 43.3-1.5 63.4-10.3q-8.8 10.7-17.5 21.3c28.8-8.4 56.2-21.7 80.6-39.2q-16.3 21.6-32.7 43.3c11.2-1.8 22-5.9 31.5-12-8.6 11-15.7 23.1-21.1 36 11.6-2.7 22.6-7.5 32.6-14-19.8 35.3-53.8 59.8-87.8 81.6 29.7-2.1 58.9-11.6 84.3-27.4-30.3 41.5-62.2 84.4-107.6 108.5-15.2 8-31.4 13.7-47.6 19.4 16.3 3.4 32.9-2 48.6-7.3-9.1 5.7-17.3 12.7-24.4 20.8 46-4.6 86.1-32 124-58.5 1.1 6.8-4.1 14.6-8.3 20.1q-12.1 15.8-24.2 31.6c12-1.6 23.8-4.4 35.2-8.3-15.6 17.1-33.2 32.4-52.3 45.5 17.3 0.1 34.5-2 51.2-6.5-50.8 33-105.7 61-164.1 75.9q-14.6-4.6-28.6-10.5c-6.3-2.6-13.3-6.3-14.8-13 3.3-0.3 7.3 1.7 10.3 3 11.8 5.1 24.7 7.7 37.5 7.6q-2.8-3.1-5.5-6.2c6.5 3.2 13.7 5 21 5.4-2.9-3.7-5.4-7.6-7.7-11.7 6.9 0.9 13.9 1.3 20.9 1.2q-17.6-6.7-35.2-13.5c-5.1-2-10.4-4.1-13.7-8.5 8.2-2.6 16.6-5.7 24.8-8.4 3.7-1.2 7.8-2.6 9.8-6-5.5-0.1-11-1.2-16.1-3.2 3.4-1.1 6.6-2.8 9.4-5.1-14.5-1.2-28.8-4.1-42.6-8.5-7.4-2.4-14.9-5.3-20.4-10.8 6.3 2.4 12.6 3.5 19.4 4.1-3.9-2.5-8-5.3-9.8-9.5q4.6 2.2 9.1 4.4c-5.4-5-8-12.2-10.4-19.2-2.3-6.6-4.6-13.2-5.8-20.1 8.7 7.4 18.8 12.2 30 14.4-3.9-2-8-4.3-10.1-8.2 10.3 5.7 23.9 4.7 33.2-2.5q-7.2-2.6-14.1-5.7c-16.2-7.5-32.2-18.5-38.6-35.1 5.9 3.9 13.2 6.3 20.2 7-2.7-1.1-5.1-2.7-7.1-4.8 6.8 1.9 14.1 1.8 20.8-0.2q-10.3-2.6-20.4-6.2c-2.3-0.8-4.6-1.7-6.5-3.2-2-1.6-3.5-3.7-4.9-5.8-2.5-4-4.6-8.3-6.3-12.8 5.8 4 12.7 7.2 19.6 8.7-1.5-1.5-2.8-3.3-3.9-5.1 4.2 2.7 9.1 4.4 14.1 4.9-4.3-2.9-8.6-5.8-12.4-9.3-10.3-9.4-16.3-22.7-20-36.1-6.8 16.1-19.3 29.8-34.8 37.9 3.3 1.1 6.9 0.9 10.1-0.5q-4.5 3.5-8.9 7c6.9-0.8 13.6-3.4 19.2-7.5-1.5 9.4-6.6 17.8-12.9 25.1-6.2 7.2-13.8 13.2-21.3 19.1 4 1 8.4 0.4 11.8-1.9-4.5 5.2-9.6 9.8-15.4 13.6 4.4 0.1 8.8-0.8 12.7-2.5-5.1 6-14.8 5.6-21 10.6 10.4 0.2 20.8-1.7 30.4-5.6-5.3 5.8-11.1 11.2-17.2 16.1 7.3 0 14.6-2.3 20.5-6.5-14.1 25.5-38 44.4-66.6 50.2 10.2 3.6 21.3-0.8 31.2-5.1q-4.3 5.2-8.6 10.4c14.1-4.1 27.5-10.6 39.5-19.2q-8 10.6-16 21.2c5.5-0.8 10.8-2.8 15.5-5.8-4.3 5.3-7.8 11.3-10.4 17.6 5.7-1.3 11.1-3.6 16-6.8-9.7 17.3-26.4 29.3-43.1 40 14.6-1 28.9-5.7 41.4-13.4-14.9 20.3-30.6 41.4-52.9 53.2-7.4 4-15.4 6.8-23.3 9.5 8 1.7 16.1-0.9 23.8-3.5-4.4 2.8-8.5 6.2-11.9 10.2 22.5-2.3 42.2-15.7 60.8-28.8 0.6 3.4-2 7.2-4.1 9.9q-5.9 7.8-11.8 15.5c5.8-0.7 11.6-2.1 17.3-4-7.7 8.4-16.3 15.9-25.7 22.3 8.5 0.1 16.9-1 25.1-3.2-28.9 18.7-60.4 34.3-94.3 40.2 13.2 4.9 27.7 6 41.5 3.2-5.5 3.8-11.5 7-17.8 9.3 9.1 3 18.9 0.5 28-2.1 13.9-3.8 28.2-7.8 39.4-16.6-21.1 22.1-46.2 38.4-72.9 53.5 15.7 0.8 31.7-2.2 46-8.8-5 3.9-9.4 8.5-13.1 13.6 13 0.6 25.4-4.6 37.3-9.6-9.7 11.8-21.5 21.9-34.7 29.7h115.9c-11.7-4.8-22.9-10.9-33.3-18.2q8.6 2.1 17.1 4.2c-12.5-7.5-22.9-18.4-29.7-31.4 19.8 9.5 41.4 15.3 63.3 17.4 8.5 0.8 17.1 1 25.3-1.4 8.1-2.5 15.7-8 18.8-15.9-32.2-1.8-63.6-15.6-86.7-38.1 25.4 7.2 54.8-2.5 70.9-23.5-23-2.9-45.7-8.1-67.6-15.4-5.6-1.8-11.2-3.9-15.8-7.4-5.7-4.4-9.6-11-10.7-18.1 9.5 8.4 20.4 14.9 32.2 19.3-1.5-4.3-1.9-9.1-1.1-13.7 4.5 6.7 9.9 12.8 16 18.1q0.4-5.6 0.8-11.2c4.6 4.7 12.1 4.7 18.6 3.6 11.2-2 22-6.3 31.5-12.4q8.6-0.7 17.1-2.5c-11.3 7.9-23.5 14.3-36.3 19.1 18.4 5.9 38.4 0.8 57.1-4.3 28.2-7.7 57.2-15.9 80.2-34-43.1 45.2-94.2 78.4-148.6 109.1 32.1 1.7 64.5-4.5 93.7-17.9-10.1 7.9-19.1 17.2-26.6 27.7 26.4 1.2 51.7-9.3 76-19.7-22.2 27.4-50.1 50-81.2 66.6zm-1151.2 0h-128.8v-69.8q2.9-4.6 5.5-9.5-2.8 1.3-5.5 2.6v-148.8c5-6.3 8.4-13.9 9.6-21.8q-4.7 4.1-9.6 7.8v-389.9q1.9-5.6 3.5-11.3c11.2 26.5 31.7 48.9 57.1 62.2-5.3 1.8-11.3 1.5-16.5-0.8q7.3 5.7 14.6 11.4c-11.4-1.3-22.4-5.6-31.6-12.3 2.5 15.4 10.9 29.3 21.2 41.1 10.3 11.9 22.6 21.7 34.9 31.4-6.5 1.8-13.6 0.6-19.3-3 7.3 8.5 15.8 16 25.2 22.2-7.1 0.2-14.3-1.2-20.8-4.1 8.4 10 24.4 9.2 34.5 17.4-17 0.4-34.1-2.7-49.9-9.2 8.8 9.5 18.2 18.4 28.3 26.5-12 0-24-3.8-33.8-10.6 23.2 41.8 62.5 72.7 109.4 82.2-16.7 6-34.9-1.2-51.1-8.3q7 8.6 14.1 17.2c-23.2-6.8-45.3-17.6-65-31.7q13.2 17.5 26.4 34.9c-9-1.4-17.7-4.7-25.4-9.6 6.9 8.8 12.7 18.6 17 29-9.3-2.2-18.2-6-26.2-11.2 15.9 28.3 43.3 48.1 70.7 65.7-24-1.8-47.5-9.4-67.9-22.1 24.4 33.4 50.1 68 86.7 87.4 12.2 6.4 25.3 11 38.3 15.6-13.1 2.8-26.5-1.6-39.2-5.8 7.4 4.5 14 10.2 19.7 16.7-37.1-3.7-69.4-25.8-99.9-47.2-0.9 5.5 3.3 11.8 6.7 16.2q9.8 12.8 19.5 25.5c-9.7-1.3-19.2-3.5-28.4-6.7 12.6 13.8 26.7 26.2 42.1 36.7-13.8 0.1-27.7-1.7-41.2-5.2 40.9 26.5 85.1 49.1 132.3 61.1q11.7-3.7 23-8.4c5.1-2.1 10.7-5.1 11.9-10.5-2.7-0.3-5.9 1.4-8.3 2.4-9.5 4.1-19.9 6.2-30.2 6.1q2.2-2.5 4.4-5c-5.2 2.6-11.1 4.1-16.9 4.3q3.5-4.4 6.2-9.3-8.4 1.1-16.9 0.9 14.2-5.4 28.4-10.9c4.1-1.5 8.4-3.3 11-6.8-6.6-2.1-13.3-4.6-19.9-6.8-3-0.9-6.3-2.1-7.9-4.8 4.4-0.1 8.8-1 12.9-2.6-2.7-0.9-5.3-2.3-7.5-4.1 11.6-1 23.2-3.3 34.3-6.8 6-1.9 12-4.3 16.4-8.8-5.1 2-10.1 2.8-15.6 3.4 3.1-2.1 6.4-4.3 7.9-7.7q-3.7 1.8-7.4 3.5c4.4-4 6.5-9.8 8.5-15.4 1.8-5.3 3.7-10.7 4.7-16.2-7.1 5.9-15.2 9.8-24.3 11.6 3.2-1.7 6.5-3.5 8.2-6.6-8.3 4.6-19.3 3.8-26.8-2q5.8-2.1 11.4-4.7c13.1-6 25.9-14.8 31.1-28.2-4.8 3.1-10.6 5.1-16.3 5.6 2.2-0.8 4.2-2.1 5.8-3.8-5.5 1.5-11.4 1.4-16.8-0.2q8.3-2.1 16.4-5c1.8-0.7 3.7-1.4 5.3-2.6 1.6-1.2 2.8-2.9 3.9-4.6 2-3.3 3.7-6.7 5.1-10.3-4.7 3.1-10.3 5.7-15.8 7q1.8-1.9 3.1-4.2c-3.4 2.2-7.3 3.6-11.3 4 3.4-2.3 6.9-4.7 10-7.5 8.3-7.6 13.1-18.3 16.1-29.1 5.4 13 15.5 24 28 30.6-2.6 0.8-5.6 0.7-8.1-0.4q3.6 2.8 7.1 5.6c-5.5-0.7-10.9-2.8-15.4-6.1 1.2 7.6 5.3 14.4 10.3 20.2 5.1 5.8 11.2 10.7 17.2 15.5-3.2 0.8-6.7 0.2-9.5-1.5 3.6 4.1 7.8 7.8 12.4 10.9-3.5 0.1-7-0.6-10.2-2.1 4.1 4.9 11.9 4.6 16.9 8.6-8.3 0.2-16.7-1.4-24.5-4.5 4.3 4.6 9 9 13.9 13-5.9 0-11.8-1.9-16.6-5.2 11.4 20.5 30.7 35.7 53.7 40.3-8.2 2.9-17.1-0.6-25.1-4q3.5 4.2 7 8.4c-11.4-3.4-22.3-8.6-31.9-15.5q6.4 8.5 12.9 17.1c-4.4-0.7-8.7-2.3-12.5-4.8 3.4 4.4 6.3 9.2 8.4 14.3-4.6-1.1-9-3-12.9-5.5 7.8 13.9 21.3 23.6 34.7 32.2-11.7-0.8-23.3-4.6-33.3-10.8 12 16.4 24.6 33.4 42.6 42.9 5.9 3.2 12.4 5.4 18.8 7.7-6.5 1.3-13.1-0.8-19.3-2.9 3.6 2.2 6.9 5 9.7 8.2-18.2-1.8-34.1-12.6-49-23.1-0.5 2.7 1.6 5.7 3.2 7.9q4.8 6.3 9.6 12.5c-4.7-0.6-9.4-1.7-13.9-3.3 6.1 6.8 13.1 12.9 20.7 18-6.9 0.1-13.7-0.8-20.3-2.5 23.3 15.1 48.7 27.6 76 32.3-10.6 4-22.4 4.9-33.5 2.6 4.5 3.1 9.3 5.6 14.4 7.5-7.3 2.4-15.2 0.4-22.6-1.6-11.1-3.1-22.6-6.3-31.7-13.5 17 17.9 37.2 31 58.8 43.1-12.7 0.7-25.6-1.7-37.1-7 4 3.1 7.6 6.8 10.5 10.9-10.4 0.5-20.4-3.7-30-7.7 7.8 9.5 17.3 17.6 27.9 23.9h-93.4c9.5-3.9 18.5-8.8 26.9-14.6q-6.9 1.6-13.8 3.3c10.1-6 18.5-14.8 23.9-25.2-15.9 7.6-33.3 12.2-50.9 13.9-6.9 0.7-13.9 0.9-20.4-1.1-6.6-2-12.7-6.4-15.2-12.8 26-1.4 51.3-12.6 69.9-30.7-20.5 5.9-44.2-2-57.1-18.9 18.5-2.4 36.7-6.6 54.4-12.4 4.5-1.5 9-3.1 12.7-6 4.6-3.5 7.8-8.8 8.7-14.5-7.7 6.7-16.5 12-26 15.5 1.2-3.5 1.6-7.4 0.9-11-3.6 5.4-8 10.3-12.9 14.5q-0.3-4.5-0.6-9c-3.7 3.8-9.8 3.8-15 2.9-9.1-1.6-17.7-5-25.4-10q-6.9-0.6-13.8-2c9.1 6.4 18.9 11.5 29.3 15.4-14.9 4.8-31 0.7-46-3.5-22.7-6.2-46.2-12.8-64.7-27.4 34.8 36.5 75.9 63.2 119.8 87.9-25.8 1.4-52-3.6-75.5-14.4 8.2 6.3 15.4 13.9 21.4 22.3-21.2 1-41.6-7.5-61.2-15.8 17.9 22 40.4 40.2 65.4 53.6z"/></svg>